<svg xmlns="http://www.w3.org/2000/svg" fill="currentCollor" viewBox="0 0 21 21">
<symbol id="floppy_small">
<path d="M0 0h2v2H0zm0 2h2v1H0zm0 1h2v2H0zm0 2h2v1H0zm0 1h2v2H0zm0 2h2v2H0zm0 2h2v1H0zm0 1h2v2H0zm0 2h2v2H0zm0 2h2v1H0zm0 1h2v2H0zm0 2h2v1H0zm0 1h2v2H0zM18 0v2h-2V0zm-2 0v2h-1V0zm-1 0v2h-2V0zm-2 0v2h-2V0zm-2 0v2h-1V0zm-1 0v2H8V0zM8 0v2H6V0zM6 0v2H5V0zM5 0v2H3V0zM3 0v2H2V0zm16 2v1h-1V2zM5 3v2H3V3zm0-1v1H3V2zm0 3v1H3V5zm11-2v2h-1V3zm0-1v1h-1V2zm0 3v1h-1V5zm-3-2v2h-2V3zm0-1v1h-2V2zm0 3v1h-2V5zm3 1v2h-1V6zm-1 0v2h-2V6zm-2 0v2h-2V6zm-2 0v2h-1V6zm-1 0v2H8V6zM8 6v2H6V6zM6 6v2H5V6zM5 6v2H3V6zm13 5v2h-2v-2zm-2 0v2h-1v-2zM15 11v2h-2v-2zm-2 0v2h-2v-2zm-2 0v2h-1v-2zm-1 0v2H8v-2zm-2 0v2H6v-2zm-2 0v2H5v-2zm-1 0v2H3v-2zm13 2v2h-2v-2zM5 13v2H3v-2zM18 15v1h-2v-1zM5 15v1H3v-1zm13 1v2h-2v-2zM5 16v2H3v-2zm0 2v1H3v-1zm13 0v1h-2v-1zm1 1v2h-1v-2zm-1 0v2h-2v-2zm-2 0v2h-1v-2zm-1 0v2h-2v-2zm-2 0v2h-2v-2zm-2 0v2h-1v-2zm-1 0v2H8v-2zm-2 0v2H6v-2zm-2 0v2H5v-2zm-1 0v2H3v-2zm-2 0v2H2v-2zm18 2h-2v-2h2zm0-2h-2v-1h2zm0-1h-2v-2h2zM21 16h-2v-1h2zm0-1h-2v-2h2zm0-2h-2v-2h2zm0-2h-2v-1h2zM21 10h-2V8h2zm0-2h-2V6h2zm0-2h-2V5h2zm0-1h-2V3h2z"/>
</symbol>
</svg>